<svg xmlns="http://www.w3.org/2000/svg" viewBox="0 0 64 64">
  <defs>
    <linearGradient id="byteGradient" x1="8" y1="8" x2="56" y2="56" gradientUnits="userSpaceOnUse">
      <stop offset="0" stop-color="#2563eb" />
      <stop offset="0.48" stop-color="#c026d3" />
      <stop offset="1" stop-color="#020617" />
    </linearGradient>
    <radialGradient id="glow" cx="32" cy="32" r="30" gradientUnits="userSpaceOnUse">
      <stop offset="0" stop-color="#ffffff" stop-opacity="0.95" />
      <stop offset="0.7" stop-color="#dbeafe" stop-opacity="0.9" />
      <stop offset="1" stop-color="#bfdbfe" stop-opacity="0.9" />
    </radialGradient>
  </defs>
  <rect width="64" height="64" rx="18" fill="url(#byteGradient)" />
  <rect x="5" y="5" width="54" height="54" rx="15" fill="url(#glow)" />
  <path
    d="M20 17h16.5c6 0 10 3.4 10 8.6 0 3.2-1.6 5.7-4.6 7.1 3.8 1.3 6.1 4.3 6.1 8.2 0 6-4.5 9.1-11.5 9.1H20V17Zm15 13.2c3 0 4.7-1.4 4.7-3.8 0-2.3-1.7-3.6-4.7-3.6h-8.1v7.4H35Zm1.1 14c3.3 0 5.1-1.5 5.1-4.1s-1.9-4-5.2-4h-9.1v8.1h9.2Z"
    fill="url(#byteGradient)"
  />
</svg>
